# xmcd
#
# Track frame offsets:
# 150
# 10125
# 21708
# 37683
# 51690
# 60609
# 72984
# 87135
# 98046
# 109317
# 119436
# 129027
# 140154
# 154641
# 168936
# 181143
#
# Disc length: 2526 seconds
#
#
# Revision: 0
# Processed by: cddbd v1.5.1PL0 Copyright (c) Steve Scherf et al.
# Submitted via: FreeRIP 2.90 
#
DISCID=d609dc10
DTITLE=Jimmy Linegar - Golden Strings
DYEAR=2005
DGENRE=Country
TTITLE0=Golden Strings
TTITLE1=Where Is He Now
TTITLE2=Her Song
TTITLE3=Pale Wildwood Flower
TTITLE4=Bubbles and Johnny One-Eye
TTITLE5=Beginner's Luck
TTITLE6=Where The Dreamy River Flows
TTITLE7=The Pawn Shops of Nashville
TTITLE8=I Believe In Santa Claus
TTITLE9=Half As Sweet
TTITLE10=I Like The Good Lookin' Kind
TTITLE11=On The Lower Ground
TTITLE12=This Time I Know Better
TTITLE13=He Died For Liberty
TTITLE14=Only A Broken Toy
TTITLE15=Crabapple Pickin'
EXTD=
EXTT0=
EXTT1=
EXTT2=
EXTT3=
EXTT4=
EXTT5=
EXTT6=
EXTT7=
EXTT8=
EXTT9=
EXTT10=
EXTT11=
EXTT12=
EXTT13=
EXTT14=
EXTT15=
PLAYORDER=
